<svg id="flat" height="512" viewBox="0 0 128 128" width="512" xmlns="http://www.w3.org/2000/svg"><path d="m114.028 23.976h-38.418l-7.6-9.566a5.957 5.957 0 0 0 -4.664-2.251h-51.719a5.955 5.955 0 0 0 -5.955 5.954v67.841a8.854 8.854 0 0 0 8.854 8.854h99.5a8.855 8.855 0 0 0 8.855-8.854v-53.124a8.855 8.855 0 0 0 -8.853-8.854z" fill="#f7b521"/><rect fill="#fff" height="61.821" rx="4.23" width="96.311" x="14.764" y="32.905"/><path d="m113.751 115.841h-99.5c-4.89 0-9.115-3.666-9.441-8.233l-3.786-53.084a8.8 8.8 0 0 1 8.939-9.514h108.074a8.8 8.8 0 0 1 8.939 9.514l-3.784 53.084c-.326 4.567-4.551 8.233-9.441 8.233z" fill="#ffc943"/><g opacity=".5"><path d="m126.973 54.523-3.773 53.083c-.328 4.575-4.551 8.235-9.443 8.235h-99.507a9.5 9.5 0 0 1 -9.057-6.334 9.42 9.42 0 0 0 2.382.3h99.5c4.892 0 9.115-3.672 9.443-8.236l3.79-53.082a9.2 9.2 0 0 0 -.352-3.285 8.748 8.748 0 0 1 7.017 9.319z" fill="#f7b521"/></g><g fill="#f7b521"><path d="m86.893 69.5h-45.786a1 1 0 0 1 0-2h45.786a1 1 0 0 1 0 2z"/><path d="m86.893 80.594h-45.786a1 1 0 0 1 0-2h45.786a1 1 0 0 1 0 2z"/><path d="m86.893 91.694h-45.786a1 1 0 1 1 0-2h45.786a1 1 0 0 1 0 2z"/></g></svg>