<svg enable-background="new 0 0 24 24" height="512" viewBox="0 0 24 24" width="512" xmlns="http://www.w3.org/2000/svg"><path d="m10.01 17.18c.02.9.21 1.75.54 2.53l-.54.29z" fill="#ffb74d"/><path d="m10 17c0 .06 0 .12.01.18v-.36c-.01.06-.01.12-.01.18z" fill="#2196f3"/><path d="m9.993 20v-10.271l-9.993-4.864v5.544 4.186z" fill="#ffcc80"/><path d="m20 4.86v5.82c-.91-.44-1.93-.68-3-.68-3.8 0-6.9 3.04-6.99 6.82v-7.09z" fill="#ffb74d"/><path d="m20 4.86-9.99 4.87-3.89-1.89-1.62-.79-4.5-2.19 9.99-4.86 4.26 2.07 1.7.82z" fill="#ffa726"/><path d="m15.731 2.796-9.882 4.924v4.974l-1.567-.798v-4.94l9.75-4.98z" fill="#795548"/><path d="m0 4.865v5.544 4.186l9.993 5.405v-10.271l-4.136-2.013-.008.004v4.974l-1.567-.798v-4.94l.007-.003z" fill="#deb26f"/><path d="m10 5.652-4.138 2.062.258.126 3.88 1.885zm-.01-5.652-9.99 4.86 4.294 2.09 5.706-2.914v-4.031z" fill="#de9121"/><path d="m10 4.036-5.706 2.914-.005.003-.007.003v4.94l1.567.798v-4.974l.008-.004.005-.002 4.138-2.062z" fill="#694a3f"/><path d="m23.78 22.72-2.767-2.767c.613-.83.987-1.845.987-2.953 0-2.757-2.243-5-5-5s-5 2.243-5 5 2.243 5 5 5c1.107 0 2.123-.374 2.952-.986l2.768 2.767c.146.147.338.22.53.22s.384-.073.53-.22c.293-.294.293-.768 0-1.061zm-10.28-5.72c0-1.93 1.57-3.5 3.5-3.5s3.5 1.57 3.5 3.5-1.57 3.5-3.5 3.5-3.5-1.57-3.5-3.5z" fill="#2196f3"/><path d="m13.429 13.504c-.883.902-1.429 2.136-1.429 3.496 0 2.757 2.243 5 5 5 1.107 0 2.123-.374 2.952-.986l2.768 2.767c.146.147.338.22.53.22.176 0 .351-.061.492-.184l-4.306-4.306c-.63.612-1.49.989-2.436.989-1.93 0-3.5-1.57-3.5-3.5 0-.946.377-1.806.989-2.436z" fill="#1d83d4"/></svg>