<?xml version="1.0" encoding="iso-8859-1"?>
<!-- Generator: Adobe Illustrator 19.0.0, SVG Export Plug-In . SVG Version: 6.00 Build 0)  -->
<svg version="1.1" id="Capa_1" xmlns="http://www.w3.org/2000/svg" xmlns:xlink="http://www.w3.org/1999/xlink" x="0px" y="0px"
	 viewBox="0 0 511.999 511.999" style="enable-background:new 0 0 511.999 511.999;" xml:space="preserve">
<path style="fill:#78CFF0;" d="M510.954,256c0,141.096-114.381,255.477-255.477,255.477c-41.617,0-80.908-9.948-115.632-27.602
	c-13.368-6.799-26.059-14.734-37.936-23.692c-28.228-21.262-51.909-48.249-69.323-79.24C11.835,343.998,0,301.381,0,256
	C0,114.903,114.381,0.523,255.477,0.523S510.954,114.903,510.954,256z"/>
<path style="fill:#A8EBFF;" d="M459.478,204.524c0,112.666-91.335,204.001-204.001,204.001c-33.232,0-64.605-7.944-92.334-22.041
	c-10.675-5.429-20.808-11.765-30.292-18.918c-22.54-16.978-41.45-38.527-55.355-63.274c-16.57-29.501-26.02-63.531-26.02-99.768
	c0-112.666,91.335-204.001,204.001-204.001S459.478,91.857,459.478,204.524z"/>
<path style="fill:#FEE670;" d="M419.639,372.435l-1.783,0.709l-5.558,2.211l-40.866,16.288l-131.107,52.201l-100.481,40.032
	c-45.131-22.951-82.524-58.906-107.259-102.931l17.977-45.141l35.517-89.167l56.247-141.242l2.232-5.568l0.709-1.783
	l198.167,198.167L419.639,372.435z"/>
<path style="fill:#EDAA5C;" d="M419.639,372.435l-1.783,0.709l-5.558,2.211l-40.866,16.288l-131.107,52.201l-100.481,40.032
	c-13.368-6.799-26.059-14.734-37.936-23.692l241.525-163.975L419.639,372.435z"/>
<path style="fill:#42445E;" d="M422.194,369.869c-1.283,1.283-2.732,2.367-4.327,3.264c-1.7,0.959-3.545,1.689-5.568,2.232
	c-29.583,7.894-93.807-27.32-157.113-87.05c-4.38-4.119-8.749-8.363-13.097-12.722c-0.855-0.855-1.721-1.721-2.576-2.586
	c-65.83-66.591-105.517-136.404-97.186-167.614c0.532-2.023,1.272-3.879,2.232-5.568c0.886-1.606,1.971-3.045,3.264-4.338
	c22.472-22.472,96.132,14.307,168.302,82.785c3.942,3.733,7.883,7.57,11.804,11.491c1.147,1.147,2.294,2.305,3.431,3.462
	C404.957,267.96,445.531,346.532,422.194,369.869z"/>
<path style="fill:#DB4573;" d="M220.014,177.033c-4.76,0-9.06-3.281-10.159-8.119c-1.276-5.616,2.242-11.203,7.857-12.48
	c17.787-4.043,24.051-20.71,32.253-47.681c6.529-21.467,13.927-45.799,34.139-59.274c18.317-12.212,35.768-16.977,51.165-21.182
	c17.217-4.702,29.656-8.098,37.809-19.874c3.277-4.735,9.775-5.917,14.509-2.638c4.735,3.278,5.917,9.774,2.638,14.509
	c-12.477,18.021-30.441,22.927-49.461,28.121c-14.546,3.972-29.586,8.079-45.091,18.415c-13.999,9.333-19.709,28.11-25.754,47.989
	c-7.83,25.749-16.705,54.933-47.583,61.951C221.556,176.949,220.779,177.033,220.014,177.033z"/>
<path style="fill:#F7F7F7;" d="M413.977,132.192c0,5.756-4.672,10.428-10.428,10.428c-28.426,0-56.372,24.182-72.191,50.605
	c-1.825,3.045-3.483,6.121-4.964,9.197c-7.268,15.037-18.874,37.258-35.84,56.57c-10.886,12.388-22.711,22.18-35.371,29.323
	c-4.38-4.119-8.749-8.363-13.097-12.722c-0.855-0.855-1.721-1.721-2.576-2.586c33.994-16.236,54.766-52.034,68.092-79.657
	c2.419-5.016,5.276-10.073,8.519-15.078c19.03-29.396,51.387-56.507,87.425-56.507C409.306,121.765,413.977,126.436,413.977,132.192
	z"/>
<path style="fill:#28A089;" d="M343.416,306.638c-5.145,0-9.623-3.807-10.322-9.047c-0.763-5.708,3.245-10.954,8.953-11.718
	c25.979-3.473,30.733-18.688,37.314-39.747c5.108-16.348,10.9-34.878,28.602-47.375c15.972-11.275,32.847-16.931,47.735-21.921
	c20.483-6.866,32.251-11.31,35.943-22.802c1.761-5.484,7.636-8.499,13.118-6.738c5.483,1.761,8.5,7.635,6.737,13.118
	c-7.099,22.094-27.534,28.944-49.17,36.196c-14.189,4.756-28.862,9.675-42.336,19.186c-11.93,8.421-16.201,22.088-20.723,36.557
	c-6.817,21.815-15.3,48.963-54.456,54.198C344.342,306.608,343.876,306.638,343.416,306.638z"/>
<path style="fill:#22B9A1;" d="M218.98,69.627c-4.432,0-8.43-2.905-9.867-7.079c-1.355-3.934-0.138-8.447,2.991-11.186
	c3.418-2.992,8.52-3.4,12.379-1.011c3.6,2.229,5.508,6.554,4.748,10.714C228.337,65.953,223.958,69.627,218.98,69.627z"/>
<path style="fill:#FEE670;" d="M377.48,80.054c-4.372,0-8.323-2.828-9.808-6.92c-1.46-4.023-0.202-8.692,3.063-11.456
	c3.414-2.889,8.445-3.266,12.247-0.905c3.65,2.267,5.55,6.676,4.716,10.885C386.746,76.472,382.389,80.054,377.48,80.054z"/>
<path style="fill:#DB4573;" d="M479.671,88.396c-4.372,0-8.323-2.828-9.808-6.92c-1.46-4.023-0.202-8.692,3.063-11.456
	c3.424-2.897,8.437-3.256,12.247-0.901c3.638,2.248,5.571,6.686,4.728,10.882C488.933,84.811,484.582,88.396,479.671,88.396z"/>
<path style="fill:#28A089;" d="M279.461,193.715c-4.372,0-8.323-2.827-9.808-6.92c-1.461-4.024-0.203-8.692,3.063-11.456
	c3.423-2.897,8.439-3.257,12.248-0.901c3.654,2.26,5.55,6.676,4.716,10.882C288.727,190.135,284.369,193.715,279.461,193.715z"/>
<path style="fill:#F7F7F7;" d="M436.219,291.735c-4.414,0-8.424-2.885-9.857-7.052c-1.437-4.178-0.014-8.963,3.511-11.646
	c3.379-2.571,8.055-2.83,11.704-0.664c3.758,2.23,5.746,6.776,4.848,11.05C445.423,288.197,441.108,291.735,436.219,291.735z"/>
<g>
</g>
<g>
</g>
<g>
</g>
<g>
</g>
<g>
</g>
<g>
</g>
<g>
</g>
<g>
</g>
<g>
</g>
<g>
</g>
<g>
</g>
<g>
</g>
<g>
</g>
<g>
</g>
<g>
</g>
</svg>
